<svg width="31" height="32" viewBox="0 0 31 32" fill="none" xmlns="http://www.w3.org/2000/svg">
<path fill-rule="evenodd" clip-rule="evenodd" d="M17.6117 0H10.454C9.93393 0 9.51189 0.422041 9.51189 0.94209V6.65963H0.941088C0.42104 6.65963 0 7.08167 0 7.60171V31.0619C0 31.582 0.42104 32.003 0.941088 32.003H20.0589C20.5789 32.003 21.001 31.582 21.001 31.0619V25.4364H29.5718C30.0918 25.4364 30.5139 25.0144 30.5139 24.4943V12.9022C30.5139 5.77654 24.7373 0 17.6117 0ZM21.001 25.4364V7.60171C21.001 7.08167 20.5789 6.65963 20.0589 6.65963H9.51189V24.4943C9.51189 25.0144 9.93393 25.4364 10.454 25.4364H21.001Z" fill="#63D590"/>
</svg>
